<svg xmlns="http://www.w3.org/2000/svg" width="1080" height="720" viewBox="0 0 1080 720">
  <defs>
    <linearGradient id="bg" x1="0" y1="0" x2="1" y2="1">
      <stop offset="0" stop-color="#f7f7fb"/>
      <stop offset="1" stop-color="#f0fdf4"/>
    </linearGradient>
    <filter id="shadow" x="-20%" y="-20%" width="140%" height="140%">
      <feDropShadow dx="0" dy="12" stdDeviation="18" flood-color="#111827" flood-opacity="0.14"/>
    </filter>
  </defs>
  <rect width="1080" height="720" fill="url(#bg)"/>
  <text x="70" y="88" font-family="Pretendard, Arial, sans-serif" font-size="42" font-weight="600" fill="#111827">Onboarding Scene Example</text>
  <text x="72" y="128" font-family="Pretendard, Arial, sans-serif" font-size="22" font-weight="400" fill="#4b5563">3단계 온보딩: 소개 → 체크인 → 호흡 가이드</text>
  
  <rect x="110" y="178" width="250" height="370" rx="28" fill="#ffffff" filter="url(#shadow)"/>
  <rect x="415" y="178" width="250" height="370" rx="28" fill="#ffffff" filter="url(#shadow)"/>
  <rect x="720" y="178" width="250" height="370" rx="28" fill="#ffffff" filter="url(#shadow)"/>
  <circle cx="235" cy="278" r="64" fill="#ede9fe"/><text x="208" y="290" font-family="Arial" font-size="48">B</text>
  <text x="160" y="386" font-family="Pretendard, Arial" font-size="23" font-weight="500" fill="#111827">베니 소개</text>
  <text x="150" y="426" font-family="Pretendard, Arial" font-size="17" fill="#6b7280">감정을 함께 바라보는</text><text x="176" y="452" font-family="Pretendard, Arial" font-size="17" fill="#6b7280">작은 친구</text>
  <circle cx="540" cy="278" r="24" fill="#60a5fa"/><circle cx="500" cy="320" r="24" fill="#34d399"/><circle cx="580" cy="320" r="24" fill="#f59e0b"/>
  <text x="466" y="386" font-family="Pretendard, Arial" font-size="23" font-weight="500" fill="#111827">감정 체크인</text>
  <text x="457" y="426" font-family="Pretendard, Arial" font-size="17" fill="#6b7280">어떤 감정이든 괜찮아요</text>
  <circle cx="845" cy="282" r="78" fill="none" stroke="#93c5fd" stroke-width="14"/><circle cx="845" cy="282" r="36" fill="#dbeafe"/>
  <text x="790" y="386" font-family="Pretendard, Arial" font-size="23" font-weight="500" fill="#111827">호흡 가이드</text>
  <text x="776" y="426" font-family="Pretendard, Arial" font-size="17" fill="#6b7280">4초 들이쉬고 내쉬기</text>

  <text x="72" y="676" font-family="Pretendard, Arial, sans-serif" font-size="18" fill="#6b7280">SOUL NARU · 예시 이미지 v1.0</text>
</svg>